<svg xmlns="http://www.w3.org/2000/svg"  viewBox="0 0 50 50" width="50px" height="50px"><path d="M 26.632812 3.9980469 C 20.751584 3.9655251 14.961129 4.285659 10.878906 4.7871094 C 8.7175182 5.0526189 7.0324749 5.8154925 5.8808594 7.0410156 C 4.7292439 8.2665388 4.1622275 9.8892751 4.0039062 11.691406 C 3.7410037 14.684288 4.0019531 19.056641 4.0019531 19.056641 A 1.0001 1.0001 0 0 0 4.8046875 19.980469 L 44.804688 27.980469 A 1.0001 1.0001 0 0 0 46 27 L 46 22 A 1.0001 1.0001 0 0 0 45.201172 21.021484 L 20.816406 16 L 45 16 A 1.0001 1.0001 0 0 0 45.996094 15.091797 C 45.996094 15.091797 46.261251 12.201418 45.611328 8.125 C 45.387968 6.7268801 44.316306 5.6036945 42.927734 5.3203125 C 38.485325 4.415282 32.514042 4.0305687 26.632812 3.9980469 z M 26.638672 6.0195312 C 32.450933 6.0540053 38.325865 6.4235666 42.527344 7.2792969 C 43.098772 7.3959149 43.542126 7.859573 43.634766 8.4394531 C 44.093108 11.314499 44.067183 13.075821 44.027344 14 L 15.908203 14 C 15.126029 14 14.483226 14.690057 14.416016 15.347656 C 14.348806 16.005256 14.839236 16.811607 15.605469 16.96875 L 44 22.814453 L 44 25.78125 L 5.9980469 18.179688 C 5.9594052 17.399755 5.7845842 14.275011 5.9960938 11.867188 C 6.1277726 10.368318 6.5612561 9.2366331 7.3378906 8.4101562 C 8.1145251 7.5836795 9.2854818 6.9969748 11.121094 6.7714844 C 15.073871 6.2859347 20.82565 5.9850531 26.638672 6.0195312 z M 5.0488281 22 A 1.0001 1.0001 0 0 0 4.0507812 23 L 4.0507812 28 A 1.0001 1.0001 0 0 0 4.8496094 28.978516 L 29.234375 34 L 5.0507812 34 A 1.0001 1.0001 0 0 0 4.0546875 34.908203 C 4.0546875 34.908203 3.7914829 37.798582 4.4414062 41.875 C 4.6647663 43.27312 5.7344752 44.396306 7.1230469 44.679688 C 16.007866 46.489748 31.009383 46.215791 39.173828 45.212891 C 41.335216 44.947381 43.018306 44.184508 44.169922 42.958984 C 45.321537 41.733461 45.888554 40.110725 46.046875 38.308594 C 46.309778 35.315712 46.048828 30.943359 46.048828 30.943359 A 1.0001 1.0001 0 0 0 45.248047 30.019531 L 5.2480469 22.019531 A 1.0001 1.0001 0 0 0 5.0488281 22 z M 6.0507812 24.21875 L 44.052734 31.820312 C 44.091374 32.600245 44.266151 35.724989 44.054688 38.132812 C 43.923009 39.631681 43.489525 40.763367 42.712891 41.589844 C 41.936256 42.416321 40.765298 43.003025 38.929688 43.228516 C 31.024086 44.199615 15.926618 44.432642 7.5234375 42.720703 C 6.9520091 42.604085 6.5086557 42.140427 6.4160156 41.560547 C 5.957633 38.685501 5.983598 36.924179 6.0234375 36 L 34.142578 36 C 34.924752 36 35.567555 35.309943 35.634766 34.652344 C 35.701976 33.994744 35.211545 33.188393 34.445312 33.03125 L 6.0507812 27.185547 L 6.0507812 24.21875 z"/></svg>